<svg id="Calque_1" data-name="Calque 1" xmlns="http://www.w3.org/2000/svg" viewBox="0 0 1079.1 779.75"><defs><style>.cls-1{fill:#b74a00;opacity:0.09;}.cls-2{fill:#ffecdc;}.cls-3{fill:#c67a46;}.cls-4{fill:#f2790c;}.cls-5{fill:#ffb57d;}.cls-6{fill:#fff;}.cls-7{fill:#774320;}.cls-8{fill:#a34e08;}.cls-9{fill:#663718;}.cls-10{fill:#ffb680;}.cls-11{fill:#ff7f1f;}.cls-12{fill:none;stroke:#fff;stroke-width:4px;}</style></defs><title>story</title><path class="cls-1" d="M1069.54,843.94s-197.17,251.47-365.88,162.53-309.53,67.77-283.06,194.82,153.53,333.53,430.94,305,568.83-289.66,608.83-383c45.53-106.21,73.06-288.21-76.24-373C1283.34,693,1139.31,761.87,1069.54,843.94Z" transform="translate(-417.39 -729.17)"/><path class="cls-2" d="M950.88,873.24l-2.47,23.11s4.59,4.77,4.94,6.18-1.94,22.94-9,25.23a25.36,25.36,0,0,1-14.11,0l-12.89,22.77h5.83s-4.24,12.88-14.65,10.94-22.77-13.76-26.12-28.94l12.18.35,11.82-12.7s.71-1.24.53-5.12-2.82-3-2.82-3-9-6.71-8.3-11.47,4.24-8.83,7.94-8.65,10.1,7.56,11.14,6.15-.19-9.68,7-13.91,14.3-6.89,16.94-9.36,4.24-2.29,4.24-2.29Z" transform="translate(-417.39 -729.17)"/><path class="cls-3" d="M948.46,885.25l.25,0c1.28-.39,12.55-4.12,12-14.44-.52-10.94-12.7-14.64-20.11-15.52s-17.47-7.06-22.94-7.42-15.89-5.11-25.42,2.65-18.88,27.18-37.41,28.24-31.59-16.42-50.82-15.89-30.53,7.24-36.88,12.53A26.06,26.06,0,0,1,753.27,881h-.08c-1.65.23-43.09,6.58-38.07,44.64,5.12,38.82,13.59,37.76,14.82,39s8.65,4.94,14.65,4.06-.53,6.53,11.47,12.88,46.23,13.94,66.18,14.82c16.7.74,39.6-2.61,46.59-3.71a1.26,1.26,0,0,0,.78-2l-18.08-26.43c-3.65-5.3-13.66-10.29-13.79-10.37l-3.57-2.14a1.26,1.26,0,0,1,0-2.13c5.13-3.36,21.09-13.28,32.94-14.6a163.14,163.14,0,0,1,26.82-.57,1.18,1.18,0,0,0,.93-.33c2-1.84,10.77-10.1,12.48-14.63a10.76,10.76,0,0,0-.11-8.36,1.23,1.23,0,0,0-.64-.63c-1.87-.83-9.71-4.69-8.78-10.6,1.06-6.7,5.3-6.17,7.42-5.82s4.06.7,6.53,3.88c.85,1.1,1.58,2.16,2.17,3.07a1.26,1.26,0,0,0,2.29-.44c.6-3.05,1.69-7.46,3.3-10,2.65-4.24,7.59-7.94,13.06-10.06s7.76-3.53,9.18-5.82,2.29-.71,2.29-.71a10.69,10.69,0,0,1,2.29,3.53,13.46,13.46,0,0,1,1.09,3.68,1.25,1.25,0,0,1-1.4,1.43h0a1.26,1.26,0,0,0-1,2.22,2.26,2.26,0,0,0,1.62.61Z" transform="translate(-417.39 -729.17)"/><path class="cls-2" d="M826.82,958.82a108.78,108.78,0,0,0-35.06,16.94c-17.88,13-26.82,18.83-26.82,18.83l-16.23,77.17s-1.65,12.71-4.71,20.24-8.94,24.94-8.94,24.94-2.59,4.71,1.18,4a6.61,6.61,0,0,0,5.41-6.12c.23-2.35.7-8.7.7-8.7a34,34,0,0,1,4.24,10.59c1.17,5.88,5.41,9.64,6.59,8.47s.7-4.71-.24-8.71,1.18-.94,1.18-.94,1.64,5.18,2.12,7.76,4,.47,4,.47l-.48-17.41s2.59-3.06,3.77,1.41,7.76,7.53,7.76,7.53,3.06-1.88-1.41-8.7-4.7-15.3-4.7-15.3-3.06-5.88,2.58-17.17,17.65-52,17.65-52,0-12,12.47-18.59,38.36-20.47,38.36-20.47Z" transform="translate(-417.39 -729.17)"/><path class="cls-4" d="M882.41,934.12s-17.7,0-31.12,4.47-35.76,12-35.76,12,7.53,11.29,10.59,20.94,6.59,22.82,6.59,22.82l29.41-15.29s1.17,28.94-1.18,42.82,26.12,4.71,26.12,4.71l69.88-38.83-9.65-19.52s-2.35-7.3-8.7-11.3-21.65-9.88-21.65-9.88Z" transform="translate(-417.39 -729.17)"/><polygon class="cls-5" points="761.43 108.01 772.73 122.6 731.32 171.07 700.73 143.36 711.55 122.6 761.43 108.01"/><path class="cls-2" d="M978.59,1288.82l10.59-39.17,21.88,7.06s-3.88,9.53-9.53,21.88-8.82,14.82-8.82,14.82Z" transform="translate(-417.39 -729.17)"/><path class="cls-2" d="M719.18,1336.47l-29.3,26.47-8.82,10.24,6.7,12.35h3.89a266.24,266.24,0,0,0,24-17.29c10.74-8.93,18.54-21.53,18.54-21.53Z" transform="translate(-417.39 -729.17)"/><rect class="cls-6" x="597.85" y="549.72" width="284.35" height="37.06"/><path class="cls-4" d="M973.29,1301.12l6-17.3s1.77,5.65,8.47,4.59,14.48-2.12,14.48-2.12a78.78,78.78,0,0,0,15.17,10.59c9.18,4.94,12.35,6.71,15.88,7.41s7.06,2.47,7.42,5.3a43.29,43.29,0,0,1,0,7.06H990.24a51.17,51.17,0,0,0-12.36-4.94l-7.76-2.12Z" transform="translate(-417.39 -729.17)"/><path class="cls-4" d="M667.29,1372.12s9.89-1.77,14.47-3.53a22.69,22.69,0,0,0,7.77-5.3l9.18,19.06s-2.83-.35-3.53,4.59,1.06,30.71,1.06,30.71,1.76,6-2.12,10.23-11.12,5.65-11.12,5.65-7.24-17.65-10.06-31.41S667.29,1372.12,667.29,1372.12Z" transform="translate(-417.39 -729.17)"/><path class="cls-7" d="M905.88,1036.47l-5.33,34.59,124.63,45.88s30.35,5.41,20.47,39.77-31.06,109.17-31.06,109.17l-40.5-12.7L993.23,1161l-110.82-17.2-38.65,109.42s-4.94,16.23-25.41,36-80.47,81.17-80.47,81.17l-36-34.59,83.33-80.47s44.44-126.35,46.55-160.94S905.88,1036.47,905.88,1036.47Z" transform="translate(-417.39 -729.17)"/><path class="cls-8" d="M645.65,1156.71l483.29-305v15.06s10.82-6.11,14.59,1.89-2.82,14.11-2.82,14.11,10.82-3.76,13.64.94,0,13.18-5.64,16.48S675.29,1200,675.29,1200Z" transform="translate(-417.39 -729.17)"/><path class="cls-2" d="M964.9,1016.5l1,3s12.71-17.18,28.94-26.59S1016,982.12,1016,982.12a42.57,42.57,0,0,0,16.24-9.36c9.3-9.06,9.41-9.89,8-11.09s-7.53-2.85-7.53-2.85-3.53-4.7.94-4.23a41.27,41.27,0,0,1,7.53,1.29,17.22,17.22,0,0,1,4.47,2.12,1.15,1.15,0,0,0,0-1.76c-.84-.85-.71-1-4.47-1.68s-9.18-2.8-5.18-3.27a73.41,73.41,0,0,1,10.6,0s-13.19-1.17-9.42-3,11.29-1.18,11.29-1.18a3.52,3.52,0,0,1,4.24,3.29c.47,4,2.82,19.77-8,27.06s-18.59,5.82-18.59,5.82-16.47,25.95-31.06,41.48-28.94,26.58-33.88,27.76-8.24.94-11.53-4.23-8.81-16.5-8.81-16.5Z" transform="translate(-417.39 -729.17)"/><polygon class="cls-9" points="792.49 97.19 761.43 108.01 772.73 122.6 792.49 97.19"/><polygon class="cls-10" points="228.26 427.54 214.14 436.01 242.38 480.25 257.9 470.83 228.26 427.54"/><path class="cls-11" d="M625.41,1203.29s7.06,14.59,17.88,12.24,16.47-6.12,16.47-6.12l-28.23-44.23s-6.12.47-9.41,10.35-1.88,14.59,0,19.29S625.41,1203.29,625.41,1203.29Z" transform="translate(-417.39 -729.17)"/><rect class="cls-6" x="298.26" y="702.36" width="284.35" height="37.06"/><rect class="cls-6" x="379.79" y="664.13" width="284.35" height="37.06"/><rect class="cls-6" x="455.67" y="625.95" width="284.35" height="37.06"/><rect class="cls-6" x="530.85" y="587.78" width="284.35" height="37.06"/><rect class="cls-12" x="677.61" y="511.66" width="284.35" height="37.06"/><rect class="cls-12" x="741.85" y="473.6" width="284.35" height="37.06"/></svg>